<svg version="1.1" id="Layer_1" xmlns="http://www.w3.org/2000/svg" xmlns:xlink="http://www.w3.org/1999/xlink" x="0px" y="0px"
	 width="100%" viewBox="0 0 460 460" enable-background="new 0 0 460 460" xml:space="preserve">
<path fill="#000000" opacity="1.000000" stroke="none" 
	d="
M461.000000,179.000000 
	C461.000000,273.307831 461.000000,367.115692 461.000000,460.961761 
	C307.733826,460.961761 154.467636,460.961761 1.100725,460.961761 
	C1.100725,307.775543 1.100725,154.550980 1.100725,1.163211 
	C154.333191,1.163211 307.666595,1.163211 461.000000,1.163211 
	C461.000000,60.198982 461.000000,119.349487 461.000000,179.000000 
M457.000000,192.500000 
	C457.000000,158.001495 457.034912,123.502899 456.955383,89.004578 
	C456.945557,84.737129 456.720886,80.396164 455.926514,76.216454 
	C450.505981,47.696140 429.040283,29.305056 400.279633,29.185511 
	C290.119690,28.727638 179.956635,28.952490 69.795044,29.121088 
	C63.321766,29.130997 56.785198,30.566488 50.390938,31.885628 
	C25.210331,37.080395 9.076472,61.902950 9.047962,85.957436 
	C8.932799,183.119720 8.987099,280.282227 9.043317,377.444611 
	C9.045786,381.711487 9.274768,386.057404 10.088898,390.231812 
	C15.594558,418.461945 38.118607,436.840179 65.707504,436.900330 
	C176.202148,437.141174 286.697815,437.076355 397.192413,436.831635 
	C404.747528,436.814880 412.562317,435.226715 419.800507,432.931671 
	C442.684265,425.675812 456.686066,404.193604 456.849487,380.990723 
	C457.289581,318.496582 456.999969,255.997269 457.000000,192.500000 
z"/>
<path fill="#607D8B" opacity="1.000000" stroke="none" 
	d="
M457.000000,193.000000 
	C456.999969,255.997269 457.289581,318.496582 456.849487,380.990723 
	C456.686066,404.193604 442.684265,425.675812 419.800507,432.931671 
	C412.562317,435.226715 404.747528,436.814880 397.192413,436.831635 
	C286.697815,437.076355 176.202148,437.141174 65.707504,436.900330 
	C38.118607,436.840179 15.594558,418.461945 10.088898,390.231812 
	C9.274768,386.057404 9.045786,381.711487 9.043317,377.444611 
	C8.987099,280.282227 8.932799,183.119720 9.047962,85.957436 
	C9.076472,61.902950 25.210331,37.080395 50.390938,31.885628 
	C56.785198,30.566488 63.321766,29.130997 69.795044,29.121088 
	C179.956635,28.952490 290.119690,28.727638 400.279633,29.185511 
	C429.040283,29.305056 450.505981,47.696140 455.926514,76.216454 
	C456.720886,80.396164 456.945557,84.737129 456.955383,89.004578 
	C457.034912,123.502899 457.000000,158.001495 457.000000,193.000000 
M57.005253,370.209503 
	C57.339344,373.313446 57.723354,376.412994 57.995640,379.522339 
	C58.388287,384.006226 60.901470,386.944580 65.089935,387.822174 
	C69.093231,388.661011 73.276001,388.950226 77.380379,388.954010 
	C147.027649,389.018097 216.674988,388.999939 286.322327,388.999939 
	C288.086914,388.999939 289.851501,388.999908 291.998413,388.999908 
	C291.998413,386.839355 291.998383,385.368805 291.998413,383.898254 
	C291.998535,367.569458 291.998657,351.240631 291.998779,334.911835 
	C291.998932,311.418365 292.074249,287.924408 291.926880,264.431854 
	C291.901642,260.409485 292.933716,258.526001 297.252686,258.941315 
	C300.389465,259.242950 303.578583,258.999634 306.744385,258.999603 
	C317.080109,258.999512 317.079102,258.999695 318.204254,268.895508 
	C318.215149,268.991180 318.446564,269.061768 317.962250,268.751465 
	C323.638611,265.351349 328.691681,261.199799 334.488007,259.097931 
	C345.005493,255.284073 355.702759,255.587479 365.852234,261.288391 
	C380.973236,269.781769 387.245667,284.120697 388.662811,299.975403 
	C390.372162,319.098724 387.263275,337.485199 371.343964,351.259430 
	C361.400055,359.863525 345.324127,363.147614 333.648102,357.142303 
	C328.911469,354.706177 324.573700,351.494507 319.539337,348.309845 
	C319.539337,361.894592 319.539337,375.205414 319.539337,388.767090 
	C320.383636,388.844635 321.183167,388.981720 321.982758,388.982208 
	C344.476501,388.995972 366.970459,389.044342 389.463806,388.950745 
	C393.237793,388.935028 397.055817,388.550018 400.769012,387.872559 
	C404.638702,387.166565 407.276947,384.554291 407.874329,380.659576 
	C408.547577,376.270233 408.952301,371.793427 408.955292,367.354309 
	C409.014984,277.879181 409.014740,188.404007 408.955994,98.928894 
	C408.953064,94.490021 408.505859,90.025063 407.908813,85.620598 
	C407.344910,81.460602 404.601685,78.827606 400.554840,78.117149 
	C396.675201,77.436035 392.691498,77.046341 388.753265,77.044235 
	C284.948792,76.988663 181.144272,76.988708 77.339775,77.043991 
	C73.401505,77.046089 69.430939,77.485451 65.534401,78.096909 
	C61.407692,78.744492 58.691517,81.400238 58.108318,85.530533 
	C57.464092,90.093079 57.047306,94.729828 57.044277,99.334602 
	C56.985062,189.309586 57.000774,279.284607 57.005253,370.209503 
M339.654724,338.995453 
	C349.696259,338.655334 356.533447,334.250458 358.759399,324.424774 
	C360.555634,316.495941 360.977509,308.071411 360.694153,299.912415 
	C360.454498,293.011261 357.553253,286.340759 351.766205,282.027557 
	C340.233093,273.431763 325.646606,278.445984 321.064606,292.426636 
	C318.563843,300.056976 318.809509,307.809906 319.785950,315.831116 
	C321.261017,327.948212 326.524475,336.133362 339.654724,338.995453 
z"/>
<path fill="#000000" opacity="1.000000" stroke="none" 
	d="
M57.003204,369.734558 
	C57.000774,279.284607 56.985062,189.309586 57.044277,99.334602 
	C57.047306,94.729828 57.464092,90.093079 58.108318,85.530533 
	C58.691517,81.400238 61.407692,78.744492 65.534401,78.096909 
	C69.430939,77.485451 73.401505,77.046089 77.339775,77.043991 
	C181.144272,76.988708 284.948792,76.988663 388.753265,77.044235 
	C392.691498,77.046341 396.675201,77.436035 400.554840,78.117149 
	C404.601685,78.827606 407.344910,81.460602 407.908813,85.620598 
	C408.505859,90.025063 408.953064,94.490021 408.955994,98.928894 
	C409.014740,188.404007 409.014984,277.879181 408.955292,367.354309 
	C408.952301,371.793427 408.547577,376.270233 407.874329,380.659576 
	C407.276947,384.554291 404.638702,387.166565 400.769012,387.872559 
	C397.055817,388.550018 393.237793,388.935028 389.463806,388.950745 
	C366.970459,389.044342 344.476501,388.995972 321.982758,388.982208 
	C321.183167,388.981720 320.383636,388.844635 319.539337,388.767090 
	C319.539337,375.205414 319.539337,361.894592 319.539337,348.309845 
	C324.573700,351.494507 328.911469,354.706177 333.648102,357.142303 
	C345.324127,363.147614 361.400055,359.863525 371.343964,351.259430 
	C387.263275,337.485199 390.372162,319.098724 388.662811,299.975403 
	C387.245667,284.120697 380.973236,269.781769 365.852234,261.288391 
	C355.702759,255.587479 345.005493,255.284073 334.488007,259.097931 
	C328.691681,261.199799 323.638611,265.351349 317.962250,268.751465 
	C318.446564,269.061768 318.215149,268.991180 318.204254,268.895508 
	C317.079102,258.999695 317.080109,258.999512 306.744385,258.999603 
	C303.578583,258.999634 300.389465,259.242950 297.252686,258.941315 
	C292.933716,258.526001 291.901642,260.409485 291.926880,264.431854 
	C292.074249,287.924408 291.998932,311.418365 291.998779,334.911835 
	C291.998657,351.240631 291.998535,367.569458 291.998413,383.898254 
	C291.998383,385.368805 291.998413,386.839355 291.998413,388.999908 
	C289.851501,388.999908 288.086914,388.999939 286.322327,388.999939 
	C216.674988,388.999939 147.027649,389.018097 77.380379,388.954010 
	C73.276001,388.950226 69.093231,388.661011 65.089935,387.822174 
	C60.901470,386.944580 58.388287,384.006226 57.995640,379.522339 
	C57.723354,376.412994 57.339344,373.313446 57.003204,369.734558 
M130.032501,133.981628 
	C130.079025,164.976395 130.125565,195.971176 130.329834,227.708481 
	C132.026108,228.469681 133.692902,229.797134 135.424103,229.887192 
	C140.892868,230.171768 146.404709,229.711395 151.863571,230.078659 
	C156.606796,230.397766 158.141403,228.888626 158.105484,223.990356 
	C157.891098,194.746292 158.003372,165.499847 157.988327,136.254211 
	C157.987503,134.646790 157.828293,133.039413 157.720490,131.012314 
	C149.270691,131.012314 141.163651,130.942810 133.061157,131.102783 
	C132.079407,131.122162 131.122086,132.379379 130.032501,133.981628 
M150.968658,352.538025 
	C158.663055,347.804077 162.662476,340.295288 166.272507,332.426697 
	C167.544876,329.653381 166.896515,328.420868 163.988068,327.988861 
	C157.513504,327.027283 151.071259,325.697174 144.563889,325.206818 
	C142.799515,325.073853 140.534332,327.104980 139.061188,328.671539 
	C137.013351,330.849243 135.963867,334.155090 133.661194,335.867676 
	C127.241997,340.641937 120.180641,339.811493 113.829010,335.819580 
	C106.909340,331.470703 104.549736,324.389587 104.044083,315.998474 
	C106.248642,315.998474 108.054321,315.998474 109.859993,315.998444 
	C127.849846,315.998291 145.839966,315.948547 163.829330,316.042725 
	C167.149139,316.060089 169.467621,315.589813 169.015320,311.493988 
	C168.599838,307.731598 168.225861,303.958527 168.023300,300.179993 
	C167.536972,291.108368 164.711090,282.742706 159.708115,275.299957 
	C150.524414,261.637695 137.276581,256.680878 121.053078,256.836578 
	C102.732841,257.012451 90.094620,265.390778 82.034691,281.173340 
	C75.263664,294.432037 74.223183,308.774719 77.262138,323.052063 
	C79.721367,334.605743 84.687569,345.480408 95.330170,351.989929 
	C113.345810,363.009094 131.856918,363.347229 150.968658,352.538025 
M261.472229,229.993500 
	C263.137665,229.993469 264.803101,229.995773 266.468536,229.992996 
	C272.990387,229.982117 272.997864,229.981522 272.998993,223.351700 
	C273.002625,202.200638 272.995178,181.049576 273.002747,159.898514 
	C273.005615,151.889404 270.789124,144.337051 265.532898,138.510162 
	C256.287231,128.260727 243.784988,127.690742 231.229019,129.462723 
	C222.412643,130.706955 215.311066,135.646301 208.764084,143.803009 
	C208.307587,138.786316 207.976974,135.153061 207.630325,131.343552 
	C199.438873,131.343552 191.398224,131.343552 183.360901,131.343552 
	C183.209518,132.152267 183.042618,132.628571 183.042282,133.105011 
	C183.020874,163.915466 183.055542,194.726089 182.948853,225.536224 
	C182.935806,229.304718 184.986893,229.974686 187.936905,229.984650 
	C193.432785,230.003204 198.944885,229.733337 204.419662,230.074203 
	C208.844620,230.349701 210.077240,228.777451 210.099792,224.409973 
	C210.194061,206.152695 210.621307,187.896423 211.017319,169.641754 
	C211.211472,160.691986 216.816498,153.221466 225.252579,150.328583 
	C234.421188,147.184479 244.319794,153.104843 244.946304,162.335861 
	C245.495316,170.424973 245.817413,178.537262 245.959564,186.644226 
	C246.128922,196.300797 245.999481,205.962601 245.999481,215.622147 
	C245.999481,229.993500 245.999466,229.993500 261.472229,229.993500 
M270.099396,344.344086 
	C261.749146,332.412933 253.351624,320.514160 245.126007,308.497681 
	C244.352646,307.367920 243.940491,305.017151 244.585114,304.046478 
	C249.210144,297.082214 254.139771,290.319611 258.996643,283.510101 
	C264.648621,275.585815 270.325073,267.678986 276.538544,258.999634 
	C267.202698,258.999634 258.748260,259.332703 250.337860,258.868317 
	C245.675781,258.610840 243.214172,260.505219 240.901230,264.132690 
	C236.543091,270.967773 231.789780,277.550903 226.834595,284.772339 
	C221.588913,276.768372 216.898453,269.469055 212.021423,262.296600 
	C211.102844,260.945679 209.464798,259.201477 208.117813,259.165375 
	C198.204391,258.899628 188.280563,259.021790 177.416779,259.021790 
	C178.722076,261.195312 179.439926,262.598663 180.346146,263.867493 
	C189.595581,276.818085 198.874512,289.747620 208.148117,302.680908 
	C210.034698,305.311981 210.587234,307.519806 208.207077,310.608612 
	C202.514267,317.996368 197.331558,325.780396 192.018860,333.456970 
	C186.722794,341.109497 181.519241,348.826019 176.204346,356.618286 
	C177.498520,357.176544 178.395004,357.891968 179.299438,357.902161 
	C187.631241,357.995850 195.970001,358.127167 204.292343,357.836090 
	C205.902481,357.779724 207.911774,356.270081 208.942764,354.852997 
	C212.506561,349.954773 215.685516,344.778320 219.077179,339.752472 
	C221.578125,336.046539 224.182327,332.410278 227.075134,328.263275 
	C232.067001,336.105988 236.553345,343.158112 241.043533,350.207794 
	C244.263489,355.263214 247.792053,359.121002 254.887711,358.157349 
	C260.778900,357.357208 266.866150,358.054871 272.864258,357.953156 
	C274.536804,357.924774 276.201141,357.414001 278.993347,356.929443 
	C275.742676,352.345642 273.122589,348.651031 270.099396,344.344086 
M327.075165,205.987000 
	C326.716858,201.892166 326.109650,197.801010 326.049377,193.701797 
	C325.899872,183.537460 326.000275,173.369446 326.000275,163.202911 
	C326.000275,159.595901 326.000275,155.988876 326.000275,151.920425 
	C332.254517,151.920425 337.849030,151.920425 343.623535,151.920425 
	C343.623535,144.726471 343.623535,138.024826 343.623535,130.865387 
	C337.659454,130.865387 332.061462,130.865387 326.059967,130.865387 
	C326.059967,119.503113 326.059967,108.594803 326.059967,96.913422 
	C317.247009,102.035660 309.025635,106.681511 300.992889,111.633369 
	C299.857697,112.333176 299.163147,114.501801 299.089294,116.030396 
	C298.851990,120.945190 299.001007,125.878639 299.001007,130.755264 
	C297.523895,130.879120 296.863373,130.976883 296.201904,130.983612 
	C286.043427,131.086746 287.052734,129.608032 287.002258,140.479065 
	C287.001465,140.645721 287.002136,140.812393 287.002136,140.979050 
	C287.002106,151.567032 287.002258,151.564026 297.650757,152.139496 
	C297.940613,152.155182 298.217712,152.407303 298.999176,152.798996 
	C298.999176,166.683563 298.898987,180.808197 299.045898,194.930267 
	C299.109344,201.033157 299.266846,207.190536 300.132141,213.215378 
	C301.180267,220.513336 304.636475,225.880112 312.045959,229.327118 
	C321.499420,233.724991 330.645966,232.109009 339.929016,230.369400 
	C342.165710,229.950272 345.645325,227.313019 345.685242,225.627838 
	C345.822723,219.826202 344.690063,213.994446 344.029297,208.066040 
	C337.974457,207.899658 332.118347,213.088547 327.075165,205.987000 
M157.999023,112.351395 
	C157.999023,106.294487 157.999023,100.237579 157.999023,94.007530 
	C149.333023,94.007530 141.536392,94.059181 133.741074,93.980194 
	C130.920273,93.951614 129.925781,95.244934 129.965958,97.921989 
	C130.048111,103.398079 129.775009,108.891457 130.155472,114.342308 
	C130.245316,115.629471 132.304321,117.776711 133.525497,117.825493 
	C141.449219,118.142006 149.391769,117.987839 157.659256,117.987839 
	C157.790192,116.185074 157.894424,114.750069 157.999023,112.351395 
z"/>
<path fill="#000000" opacity="1.000000" stroke="none" 
	d="
M339.228485,338.988220 
	C326.524475,336.133362 321.261017,327.948212 319.785950,315.831116 
	C318.809509,307.809906 318.563843,300.056976 321.064606,292.426636 
	C325.646606,278.445984 340.233093,273.431763 351.766205,282.027557 
	C357.553253,286.340759 360.454498,293.011261 360.694153,299.912415 
	C360.977509,308.071411 360.555634,316.495941 358.759399,324.424774 
	C356.533447,334.250458 349.696259,338.655334 339.228485,338.988220 
z"/>
<path fill="#607D8B" opacity="1.000000" stroke="none" 
	d="
M150.697571,352.791260 
	C131.856918,363.347229 113.345810,363.009094 95.330170,351.989929 
	C84.687569,345.480408 79.721367,334.605743 77.262138,323.052063 
	C74.223183,308.774719 75.263664,294.432037 82.034691,281.173340 
	C90.094620,265.390778 102.732841,257.012451 121.053078,256.836578 
	C137.276581,256.680878 150.524414,261.637695 159.708115,275.299957 
	C164.711090,282.742706 167.536972,291.108368 168.023300,300.179993 
	C168.225861,303.958527 168.599838,307.731598 169.015320,311.493988 
	C169.467621,315.589813 167.149139,316.060089 163.829330,316.042725 
	C145.839966,315.948547 127.849846,315.998291 109.859993,315.998444 
	C108.054321,315.998474 106.248642,315.998474 104.044083,315.998474 
	C104.549736,324.389587 106.909340,331.470703 113.829010,335.819580 
	C120.180641,339.811493 127.241997,340.641937 133.661194,335.867676 
	C135.963867,334.155090 137.013351,330.849243 139.061188,328.671539 
	C140.534332,327.104980 142.799515,325.073853 144.563889,325.206818 
	C151.071259,325.697174 157.513504,327.027283 163.988068,327.988861 
	C166.896515,328.420868 167.544876,329.653381 166.272507,332.426697 
	C162.662476,340.295288 158.663055,347.804077 150.697571,352.791260 
M129.375320,278.785645 
	C115.310257,275.020599 103.539101,284.212128 105.508766,297.699097 
	C117.177521,297.699097 128.882278,297.699097 140.569855,297.699097 
	C141.189438,287.622192 138.412247,283.519043 129.375320,278.785645 
z"/>
<path fill="#607D8B" opacity="1.000000" stroke="none" 
	d="
M260.980804,229.993500 
	C245.999466,229.993500 245.999481,229.993500 245.999481,215.622147 
	C245.999481,205.962601 246.128922,196.300797 245.959564,186.644226 
	C245.817413,178.537262 245.495316,170.424973 244.946304,162.335861 
	C244.319794,153.104843 234.421188,147.184479 225.252579,150.328583 
	C216.816498,153.221466 211.211472,160.691986 211.017319,169.641754 
	C210.621307,187.896423 210.194061,206.152695 210.099792,224.409973 
	C210.077240,228.777451 208.844620,230.349701 204.419662,230.074203 
	C198.944885,229.733337 193.432785,230.003204 187.936905,229.984650 
	C184.986893,229.974686 182.935806,229.304718 182.948853,225.536224 
	C183.055542,194.726089 183.020874,163.915466 183.042282,133.105011 
	C183.042618,132.628571 183.209518,132.152267 183.360901,131.343552 
	C191.398224,131.343552 199.438873,131.343552 207.630325,131.343552 
	C207.976974,135.153061 208.307587,138.786316 208.764084,143.803009 
	C215.311066,135.646301 222.412643,130.706955 231.229019,129.462723 
	C243.784988,127.690742 256.287231,128.260727 265.532898,138.510162 
	C270.789124,144.337051 273.005615,151.889404 273.002747,159.898514 
	C272.995178,181.049576 273.002625,202.200638 272.998993,223.351700 
	C272.997864,229.981522 272.990387,229.982117 266.468536,229.992996 
	C264.803101,229.995773 263.137665,229.993469 260.980804,229.993500 
z"/>
<path fill="#607D8B" opacity="1.000000" stroke="none" 
	d="
M270.300964,344.650269 
	C273.122589,348.651031 275.742676,352.345642 278.993347,356.929443 
	C276.201141,357.414001 274.536804,357.924774 272.864258,357.953156 
	C266.866150,358.054871 260.778900,357.357208 254.887711,358.157349 
	C247.792053,359.121002 244.263489,355.263214 241.043533,350.207794 
	C236.553345,343.158112 232.067001,336.105988 227.075134,328.263275 
	C224.182327,332.410278 221.578125,336.046539 219.077179,339.752472 
	C215.685516,344.778320 212.506561,349.954773 208.942764,354.852997 
	C207.911774,356.270081 205.902481,357.779724 204.292343,357.836090 
	C195.970001,358.127167 187.631241,357.995850 179.299438,357.902161 
	C178.395004,357.891968 177.498520,357.176544 176.204346,356.618286 
	C181.519241,348.826019 186.722794,341.109497 192.018860,333.456970 
	C197.331558,325.780396 202.514267,317.996368 208.207077,310.608612 
	C210.587234,307.519806 210.034698,305.311981 208.148117,302.680908 
	C198.874512,289.747620 189.595581,276.818085 180.346146,263.867493 
	C179.439926,262.598663 178.722076,261.195312 177.416779,259.021790 
	C188.280563,259.021790 198.204391,258.899628 208.117813,259.165375 
	C209.464798,259.201477 211.102844,260.945679 212.021423,262.296600 
	C216.898453,269.469055 221.588913,276.768372 226.834595,284.772339 
	C231.789780,277.550903 236.543091,270.967773 240.901230,264.132690 
	C243.214172,260.505219 245.675781,258.610840 250.337860,258.868317 
	C258.748260,259.332703 267.202698,258.999634 276.538544,258.999634 
	C270.325073,267.678986 264.648621,275.585815 258.996643,283.510101 
	C254.139771,290.319611 249.210144,297.082214 244.585114,304.046478 
	C243.940491,305.017151 244.352646,307.367920 245.126007,308.497681 
	C253.351624,320.514160 261.749146,332.412933 270.300964,344.650269 
z"/>
<path fill="#607D8B" opacity="1.000000" stroke="none" 
	d="
M327.209320,206.376801 
	C332.118347,213.088547 337.974457,207.899658 344.029297,208.066040 
	C344.690063,213.994446 345.822723,219.826202 345.685242,225.627838 
	C345.645325,227.313019 342.165710,229.950272 339.929016,230.369400 
	C330.645966,232.109009 321.499420,233.724991 312.045959,229.327118 
	C304.636475,225.880112 301.180267,220.513336 300.132141,213.215378 
	C299.266846,207.190536 299.109344,201.033157 299.045898,194.930267 
	C298.898987,180.808197 298.999176,166.683563 298.999176,152.798996 
	C298.217712,152.407303 297.940613,152.155182 297.650757,152.139496 
	C287.002258,151.564026 287.002106,151.567032 287.002136,140.979050 
	C287.002136,140.812393 287.001465,140.645721 287.002258,140.479065 
	C287.052734,129.608032 286.043427,131.086746 296.201904,130.983612 
	C296.863373,130.976883 297.523895,130.879120 299.001007,130.755264 
	C299.001007,125.878639 298.851990,120.945190 299.089294,116.030396 
	C299.163147,114.501801 299.857697,112.333176 300.992889,111.633369 
	C309.025635,106.681511 317.247009,102.035660 326.059967,96.913422 
	C326.059967,108.594803 326.059967,119.503113 326.059967,130.865387 
	C332.061462,130.865387 337.659454,130.865387 343.623535,130.865387 
	C343.623535,138.024826 343.623535,144.726471 343.623535,151.920425 
	C337.849030,151.920425 332.254517,151.920425 326.000275,151.920425 
	C326.000275,155.988876 326.000275,159.595901 326.000275,163.202911 
	C326.000275,173.369446 325.899872,183.537460 326.049377,193.701797 
	C326.109650,197.801010 326.716858,201.892166 327.209320,206.376801 
z"/>
<path fill="#607D8B" opacity="1.000000" stroke="none" 
	d="
M130.153427,133.062912 
	C131.122086,132.379379 132.079407,131.122162 133.061157,131.102783 
	C141.163651,130.942810 149.270691,131.012314 157.720490,131.012314 
	C157.828293,133.039413 157.987503,134.646790 157.988327,136.254211 
	C158.003372,165.499847 157.891098,194.746292 158.105484,223.990356 
	C158.141403,228.888626 156.606796,230.397766 151.863571,230.078659 
	C146.404709,229.711395 140.892868,230.171768 135.424103,229.887192 
	C133.692902,229.797134 132.026108,228.469681 130.382538,226.950500 
	C130.621277,224.547424 130.967438,222.902527 130.969482,221.257202 
	C131.003510,193.820312 131.011642,166.383331 130.958755,138.946503 
	C130.954987,136.984802 130.433960,135.024078 130.153427,133.062912 
z"/>
<path fill="#607D8B" opacity="1.000000" stroke="none" 
	d="
M157.998840,112.833229 
	C157.894424,114.750069 157.790192,116.185074 157.659256,117.987839 
	C149.391769,117.987839 141.449219,118.142006 133.525497,117.825493 
	C132.304321,117.776711 130.245316,115.629471 130.155472,114.342308 
	C129.775009,108.891457 130.048111,103.398079 129.965958,97.921989 
	C129.925781,95.244934 130.920273,93.951614 133.741074,93.980194 
	C141.536392,94.059181 149.333023,94.007530 157.999023,94.007530 
	C157.999023,100.237579 157.999023,106.294487 157.998840,112.833229 
z"/>
<path fill="#5D8B8B" opacity="1.000000" stroke="none" 
	d="
M130.092957,133.522278 
	C130.433960,135.024078 130.954987,136.984802 130.958755,138.946503 
	C131.011642,166.383331 131.003510,193.820312 130.969482,221.257202 
	C130.967438,222.902527 130.621277,224.547424 130.303665,226.579224 
	C130.125565,195.971176 130.079025,164.976395 130.092957,133.522278 
z"/>
<path fill="#000000" opacity="1.000000" stroke="none" 
	d="
M129.752258,278.905518 
	C138.412247,283.519043 141.189438,287.622192 140.569855,297.699097 
	C128.882278,297.699097 117.177521,297.699097 105.508766,297.699097 
	C103.539101,284.212128 115.310257,275.020599 129.752258,278.905518 
z"/>
</svg>